<svg xmlns="http://www.w3.org/2000/svg" height="20" width="20" style="fill: #505050;"><defs><symbol id="hexagon" viewBox="0 0 576 512">
        <path d="M441.5 39.8C432.9 25.1 417.1 16 400 16H176c-17.1 0-32.9 9.1-41.5 23.8l-112 192c-8.7 14.9-8.7 33.4 0 48.4l112 192c8.6 14.7 24.4 23.8 41.5 23.8h224c17.1 0 32.9-9.1 41.5-23.8l112-192c8.7-14.9 8.7-33.4 0-48.4l-112-192z"></path>
    </symbol>
    <symbol id="sparkles-duo-primary" viewBox="0 0 512 512">
        <path d="M384 254.64a16.06 16.06 0 0 0-8.84-14.33l-112.57-56.39-56.28-112.77c-5.44-10.87-23.19-10.87-28.62 0l-56.28 112.77L8.84 240.31a16 16 0 0 0 0 28.67l112.57 56.39 56.28 112.77a16 16 0 0 0 28.62 0l56.28-112.77L375.16 269a16.07 16.07 0 0 0 8.84-14.36z" class="fa-primary"></path>
    </symbol>
    <symbol id="sparkles-duo-secondary" viewBox="0 0 512 512">
        <path d="M423.16 186.58L448 127l59.58-24.84a8 8 0 0 0 0-14.32L448 63 423.16 3.42a8 8 0 0 0-14.32 0L384 63l-59.58 24.84a8 8 0 0 0 0 14.32L384 127l24.84 59.58a8 8 0 0 0 14.32 0zm-14.32 136.84L384 383l-59.58 24.84a8 8 0 0 0 0 14.32L384 447l24.84 59.58a8 8 0 0 0 14.32 0L448 447l59.58-24.84a8 8 0 0 0 0-14.32L448 383l-24.84-59.58a8 8 0 0 0-14.32 0z" class="fa-secondary"></path>
    </symbol>
    <mask id="227bc81a-7a9b-4369-9f1b-2d9c91c56e98mask0"><rect id="bg" x="0" y="0" width="100%" height="100%" fill="white"></rect><svg height="20" width="20" style="fill: black; opacity: 0.8;"><defs></defs><g transform="translate(10 10.5) scale(.6)rotate(-90) translate(-10 -10)"><use href="#sparkles-duo-secondary"></use></g></svg></mask><mask id="227bc81a-7a9b-4369-9f1b-2d9c91c56e98mask1"><rect id="bg" x="0" y="0" width="100%" height="100%" fill="white"></rect><svg height="20" width="20" style="fill: black; opacity: 1;"><defs></defs><g transform="translate(10 10.5) scale(.6) rotate(-90) translate(-10 -10)"><use href="#sparkles-duo-primary"></use></g></svg></mask></defs><g transform="translate(10 10) rotate(90) translate(-10 -10)"><g mask="url(#227bc81a-7a9b-4369-9f1b-2d9c91c56e98mask1)"><g mask="url(#227bc81a-7a9b-4369-9f1b-2d9c91c56e98mask0)"><use href="#hexagon"></use></g></g></g></svg>
